<mxfile host="app.diagrams.net" modified="2023-11-14T20:22:32.014Z" agent="Mozilla/5.0 (Macintosh; Intel Mac OS X 10_15_7) AppleWebKit/605.1.15 (KHTML, like Gecko) Version/17.1 Safari/605.1.15" etag="L_c9VQdR_VUZ5sFEsFIt" version="22.1.3" type="device">
  <diagram id="C5RBs43oDa-KdzZeNtuy" name="Page-1">
    <mxGraphModel dx="838" dy="716" grid="1" gridSize="10" guides="1" tooltips="1" connect="1" arrows="1" fold="1" page="1" pageScale="1" pageWidth="827" pageHeight="1169" math="0" shadow="0">
      <root>
        <mxCell id="WIyWlLk6GJQsqaUBKTNV-0" />
        <mxCell id="WIyWlLk6GJQsqaUBKTNV-1" parent="WIyWlLk6GJQsqaUBKTNV-0" />
        <mxCell id="EGdTDVzo-IKkMMFWTRwx-2" value="" style="endArrow=open;html=1;endSize=12;startArrow=diamondThin;startSize=14;startFill=1;edgeStyle=orthogonalEdgeStyle;align=left;verticalAlign=bottom;rounded=0;fontSize=12;curved=1;exitX=1;exitY=0.5;exitDx=0;exitDy=0;entryX=0;entryY=0.5;entryDx=0;entryDy=0;" edge="1" parent="WIyWlLk6GJQsqaUBKTNV-1" source="EGdTDVzo-IKkMMFWTRwx-10" target="EGdTDVzo-IKkMMFWTRwx-14">
          <mxGeometry x="-1" y="3" relative="1" as="geometry">
            <mxPoint x="340" y="1030" as="sourcePoint" />
            <mxPoint x="590" y="1030" as="targetPoint" />
          </mxGeometry>
        </mxCell>
        <mxCell id="EGdTDVzo-IKkMMFWTRwx-3" value="0.*" style="text;html=1;align=center;verticalAlign=middle;resizable=0;points=[];autosize=1;strokeColor=none;fillColor=none;fontSize=16;" vertex="1" parent="WIyWlLk6GJQsqaUBKTNV-1">
          <mxGeometry x="490" y="1005" width="40" height="30" as="geometry" />
        </mxCell>
        <mxCell id="EGdTDVzo-IKkMMFWTRwx-5" value="1" style="endArrow=open;html=1;endSize=12;startArrow=diamondThin;startSize=14;startFill=1;edgeStyle=orthogonalEdgeStyle;align=left;verticalAlign=bottom;rounded=0;fontSize=12;curved=1;entryX=0.5;entryY=0;entryDx=0;entryDy=0;exitX=0.5;exitY=1.011;exitDx=0;exitDy=0;exitPerimeter=0;" edge="1" parent="WIyWlLk6GJQsqaUBKTNV-1" source="EGdTDVzo-IKkMMFWTRwx-14" target="EGdTDVzo-IKkMMFWTRwx-15">
          <mxGeometry x="-1" y="3" relative="1" as="geometry">
            <mxPoint x="620" y="1130" as="sourcePoint" />
            <mxPoint x="750" y="1090" as="targetPoint" />
            <Array as="points">
              <mxPoint x="620" y="1240" />
              <mxPoint x="620" y="1240" />
            </Array>
          </mxGeometry>
        </mxCell>
        <mxCell id="EGdTDVzo-IKkMMFWTRwx-6" value="0.*" style="text;html=1;align=center;verticalAlign=middle;resizable=0;points=[];autosize=1;strokeColor=none;fillColor=none;fontSize=16;" vertex="1" parent="WIyWlLk6GJQsqaUBKTNV-1">
          <mxGeometry x="620" y="1210" width="40" height="30" as="geometry" />
        </mxCell>
        <mxCell id="EGdTDVzo-IKkMMFWTRwx-8" value="0.*" style="text;html=1;align=center;verticalAlign=middle;resizable=0;points=[];autosize=1;strokeColor=none;fillColor=none;fontSize=16;" vertex="1" parent="WIyWlLk6GJQsqaUBKTNV-1">
          <mxGeometry x="350" y="1355" width="40" height="30" as="geometry" />
        </mxCell>
        <mxCell id="EGdTDVzo-IKkMMFWTRwx-9" value="User" style="swimlane;fontStyle=1;align=center;verticalAlign=top;childLayout=stackLayout;horizontal=1;startSize=26;horizontalStack=0;resizeParent=1;resizeParentMax=0;resizeLast=0;collapsible=1;marginBottom=0;whiteSpace=wrap;html=1;fontSize=16;" vertex="1" parent="WIyWlLk6GJQsqaUBKTNV-1">
          <mxGeometry x="180" y="920" width="160" height="200" as="geometry" />
        </mxCell>
        <mxCell id="EGdTDVzo-IKkMMFWTRwx-10" value="&amp;nbsp;id: int&lt;br&gt;&amp;nbsp;firstName: String&lt;br&gt;&amp;nbsp;lastName: String&lt;br&gt;&amp;nbsp;email: String&lt;br&gt;&amp;nbsp;password: String&lt;br&gt;&amp;nbsp;phoneNo: String&lt;br&gt;&amp;nbsp;boards: Board[]" style="text;strokeColor=none;fillColor=none;align=left;verticalAlign=top;spacingLeft=4;spacingRight=4;overflow=hidden;rotatable=0;points=[[0,0.5],[1,0.5]];portConstraint=eastwest;whiteSpace=wrap;html=1;fontSize=16;" vertex="1" parent="EGdTDVzo-IKkMMFWTRwx-9">
          <mxGeometry y="26" width="160" height="174" as="geometry" />
        </mxCell>
        <mxCell id="EGdTDVzo-IKkMMFWTRwx-13" value="Board" style="swimlane;fontStyle=1;align=center;verticalAlign=top;childLayout=stackLayout;horizontal=1;startSize=26;horizontalStack=0;resizeParent=1;resizeParentMax=0;resizeLast=0;collapsible=1;marginBottom=0;whiteSpace=wrap;html=1;fontSize=16;" vertex="1" parent="WIyWlLk6GJQsqaUBKTNV-1">
          <mxGeometry x="540" y="960" width="160" height="120" as="geometry" />
        </mxCell>
        <mxCell id="EGdTDVzo-IKkMMFWTRwx-14" value="&amp;nbsp;- id: int&lt;br&gt;&amp;nbsp;- name: String&lt;br&gt;&amp;nbsp;- columns: String[]&lt;br&gt;&amp;nbsp;- tasks: Task[]" style="text;strokeColor=none;fillColor=none;align=left;verticalAlign=top;spacingLeft=4;spacingRight=4;overflow=hidden;rotatable=0;points=[[0,0.5],[1,0.5]];portConstraint=eastwest;whiteSpace=wrap;html=1;fontSize=16;" vertex="1" parent="EGdTDVzo-IKkMMFWTRwx-13">
          <mxGeometry y="26" width="160" height="94" as="geometry" />
        </mxCell>
        <mxCell id="EGdTDVzo-IKkMMFWTRwx-15" value="Task" style="swimlane;fontStyle=1;align=center;verticalAlign=top;childLayout=stackLayout;horizontal=1;startSize=26;horizontalStack=0;resizeParent=1;resizeParentMax=0;resizeLast=0;collapsible=1;marginBottom=0;whiteSpace=wrap;html=1;fontSize=16;" vertex="1" parent="WIyWlLk6GJQsqaUBKTNV-1">
          <mxGeometry x="540" y="1250" width="160" height="240" as="geometry" />
        </mxCell>
        <mxCell id="EGdTDVzo-IKkMMFWTRwx-16" value="&amp;nbsp;id: int&lt;br&gt;&amp;nbsp;title: String&lt;br&gt;&amp;nbsp;description: String&lt;br&gt;&amp;nbsp;dueDate: Date&lt;br&gt;&amp;nbsp;label: String&lt;br&gt;&amp;nbsp;attachmentPath: String&lt;br&gt;&amp;nbsp;subtasks: Subtask[]&lt;br&gt;&amp;nbsp;priority: String&lt;br&gt;&amp;nbsp;status: String" style="text;strokeColor=none;fillColor=none;align=left;verticalAlign=top;spacingLeft=4;spacingRight=4;overflow=hidden;rotatable=0;points=[[0,0.5],[1,0.5]];portConstraint=eastwest;whiteSpace=wrap;html=1;fontSize=16;" vertex="1" parent="EGdTDVzo-IKkMMFWTRwx-15">
          <mxGeometry y="26" width="160" height="214" as="geometry" />
        </mxCell>
        <mxCell id="EGdTDVzo-IKkMMFWTRwx-17" value="Subtask" style="swimlane;fontStyle=1;align=center;verticalAlign=top;childLayout=stackLayout;horizontal=1;startSize=26;horizontalStack=0;resizeParent=1;resizeParentMax=0;resizeLast=0;collapsible=1;marginBottom=0;whiteSpace=wrap;html=1;fontSize=16;" vertex="1" parent="WIyWlLk6GJQsqaUBKTNV-1">
          <mxGeometry x="170" y="1360" width="170" height="80" as="geometry" />
        </mxCell>
        <mxCell id="EGdTDVzo-IKkMMFWTRwx-18" value="&amp;nbsp;- id: int&lt;br&gt;&amp;nbsp;- title: String" style="text;strokeColor=none;fillColor=none;align=left;verticalAlign=top;spacingLeft=4;spacingRight=4;overflow=hidden;rotatable=0;points=[[0,0.5],[1,0.5]];portConstraint=eastwest;whiteSpace=wrap;html=1;fontSize=16;" vertex="1" parent="EGdTDVzo-IKkMMFWTRwx-17">
          <mxGeometry y="26" width="170" height="54" as="geometry" />
        </mxCell>
        <mxCell id="EGdTDVzo-IKkMMFWTRwx-20" value="1" style="endArrow=open;html=1;endSize=12;startArrow=diamondThin;startSize=14;startFill=1;edgeStyle=orthogonalEdgeStyle;align=left;verticalAlign=bottom;rounded=0;fontSize=12;curved=1;exitX=0;exitY=0.5;exitDx=0;exitDy=0;entryX=1;entryY=0.25;entryDx=0;entryDy=0;" edge="1" parent="WIyWlLk6GJQsqaUBKTNV-1" source="EGdTDVzo-IKkMMFWTRwx-16" target="EGdTDVzo-IKkMMFWTRwx-17">
          <mxGeometry x="-1" y="3" relative="1" as="geometry">
            <mxPoint x="455" y="1369.5" as="sourcePoint" />
            <mxPoint x="345" y="1369.5" as="targetPoint" />
            <mxPoint as="offset" />
          </mxGeometry>
        </mxCell>
      </root>
    </mxGraphModel>
  </diagram>
</mxfile>
